# xmcd
#
# Track frame offsets: 
#        150
#        23595
#        40411
#        56390
#        79639
#        99302
#        114434
#        132135
#        153031
#        171898
#        186936
#        207286
#        220175
#        241382
#
# Disc length: 3509 seconds
#
# Revision: 0
# Processed by: cddbd v1.4PL0 Copyright (c) Steve Scherf et al.
# Submitted via: ExactAudioCopy v0.95a3
#
DISCID=ad0db30e
DTITLE=Flybaits - The Best Of Flybaits
DYEAR=1900
DGENRE=Oldies
TTITLE0=Kesan
TTITLE1=Dewi Pujaan
TTITLE2=Cahaya Cinta
TTITLE3=Maafkanlah Kesalahanku
TTITLE4=Senandong Irama
TTITLE5=Belada Pemain Muzik
TTITLE6=Cemburu
TTITLE7=Dia (Dan Surya)
TTITLE8=Kenangan Lalu
TTITLE9=Keindahan Alam
TTITLE10=Kasih Berubah
TTITLE11=Gara-Gara Cinta
TTITLE12=Nirwara
TTITLE13=Bergurau Senda
EXTD=
EXTT0=
EXTT1=
EXTT2=
EXTT3=
EXTT4=
EXTT5=
EXTT6=
EXTT7=
EXTT8=
EXTT9=
EXTT10=
EXTT11=
EXTT12=
EXTT13=
PLAYORDER=
